<?xml version="1.0" encoding="UTF-8"?>
<!DOCTYPE svg PUBLIC "-//W3C//DTD SVG 1.1//EN" "http://www.w3.org/Graphics/SVG/1.1/DTD/svg11.dtd">
<!-- Creator: CorelDRAW X8 -->
<svg xmlns="http://www.w3.org/2000/svg" xml:space="preserve" width="153.073mm" height="40.8496mm" version="1.1" style="shape-rendering:geometricPrecision; text-rendering:geometricPrecision; image-rendering:optimizeQuality; fill-rule:evenodd; clip-rule:evenodd"
viewBox="0 0 15307 4085"
 xmlns:xlink="http://www.w3.org/1999/xlink">
 <defs>
  <style type="text/css">
   <![CDATA[
    .fil6 {fill:#18251B}
    .fil1 {fill:#353537;fill-rule:nonzero}
    .fil0 {fill:#12211C;fill-rule:nonzero}
    .fil2 {fill:url(#id0)}
    .fil7 {fill:url(#id1)}
    .fil3 {fill:url(#id2)}
    .fil5 {fill:url(#id3)}
    .fil4 {fill:url(#id4)}
   ]]>
  </style>
  <linearGradient id="id0" gradientUnits="userSpaceOnUse" x1="4304.05" y1="3256.97" x2="4362.04" y2="2483.45">
   <stop offset="0" style="stop-opacity:1; stop-color:#1A251F"/>
   <stop offset="0.501961" style="stop-opacity:1; stop-color:#203725"/>
   <stop offset="1" style="stop-opacity:1; stop-color:#344C32"/>
  </linearGradient>
  <linearGradient id="id1" gradientUnits="userSpaceOnUse" xlink:href="#id0" x1="3907.6" y1="323.72" x2="4337.83" y2="1449.94">
  </linearGradient>
  <linearGradient id="id2" gradientUnits="userSpaceOnUse" x1="2591.57" y1="2158.56" x2="3376.13" y2="386.96">
   <stop offset="0" style="stop-opacity:1; stop-color:#12211C"/>
   <stop offset="0.262745" style="stop-opacity:1; stop-color:#485744"/>
   <stop offset="0.509804" style="stop-opacity:1; stop-color:#224421"/>
   <stop offset="1" style="stop-opacity:1; stop-color:#7F8D6C"/>
  </linearGradient>
  <linearGradient id="id3" gradientUnits="userSpaceOnUse" xlink:href="#id0" x1="4215.57" y1="2717.71" x2="4355.85" y2="3000.9">
  </linearGradient>
  <linearGradient id="id4" gradientUnits="userSpaceOnUse" xlink:href="#id2" x1="3281.13" y1="3368.75" x2="3503.72" y2="2001.94">
  </linearGradient>
 </defs>
 <g id="Layer_x0020_1">
  <metadata id="CorelCorpID_0Corel-Layer"/>
  <g id="_2633403375808">
   <path class="fil0" d="M6419 1507l-445 0 -88 206 -171 0 401 -891 163 0 403 891 -173 0 -90 -206zm-54 -130l-168 -390 -167 390 335 0zm430 -555l390 0c95,0 179,18 253,55 74,37 131,89 172,157 41,67 61,145 61,233 0,89 -20,167 -61,234 -41,68 -98,120 -172,157 -74,37 -158,55 -253,55l-390 0 0 -891zm382 751c65,0 123,-12 173,-38 49,-25 87,-60 114,-106 27,-47 40,-100 40,-162 0,-61 -13,-114 -40,-161 -27,-46 -65,-82 -114,-107 -50,-25 -108,-37 -173,-37l-216 0 0 611 216 0zm1082 153c-90,0 -171,-20 -244,-59 -72,-40 -129,-94 -170,-164 -41,-70 -62,-148 -62,-236 0,-87 21,-165 62,-235 42,-70 99,-124 172,-164 72,-39 154,-59 244,-59 73,0 139,13 199,38 61,26 112,63 153,111l-107 101c-64,-70 -144,-105 -238,-105 -61,0 -116,14 -164,40 -48,27 -86,64 -113,112 -28,47 -41,101 -41,161 0,61 13,115 41,162 27,48 65,85 113,112 48,26 103,40 164,40 94,0 174,-36 238,-106l107 102c-41,48 -92,85 -153,111 -61,25 -128,38 -201,38zm785 0c-69,0 -136,-10 -200,-29 -64,-20 -114,-46 -152,-78l57 -129c37,29 82,53 135,71 53,18 106,27 160,27 66,0 115,-10 148,-31 33,-22 49,-50 49,-85 0,-25 -9,-46 -27,-63 -19,-16 -42,-29 -70,-38 -28,-10 -66,-20 -114,-32 -68,-16 -123,-32 -165,-49 -42,-16 -78,-41 -109,-75 -30,-35 -45,-81 -45,-140 0,-49 14,-94 40,-134 27,-40 67,-72 121,-96 54,-24 120,-36 198,-36 55,0 108,7 161,20 52,14 98,34 136,59l-52 129c-39,-23 -80,-41 -122,-53 -43,-11 -84,-17 -124,-17 -65,0 -114,11 -146,33 -32,22 -47,51 -47,88 0,25 9,46 27,62 18,16 41,29 69,38 28,10 66,20 115,32 66,15 120,31 163,48 42,16 79,42 109,75 30,34 45,80 45,138 0,49 -13,94 -40,134 -27,40 -67,71 -122,95 -54,24 -120,36 -198,36z"/>
   <path class="fil0" d="M5940 2314l-125 127 0 176 -97 0 0 -682 97 0 0 381 370 -381 111 0 -291 307 310 375 -114 0 -261 -303zm1004 132l-362 0 -75 171 -100 0 308 -682 97 0 309 682 -102 0 -75 -171zm-34 -78l-147 -334 -147 334 294 0zm941 164l0 85 -569 0 0 -66 428 -531 -421 0 0 -85 550 0 0 66 -427 531 439 0zm684 -86l-362 0 -75 171 -100 0 309 -682 96 0 310 682 -103 0 -75 -171zm-34 -78l-147 -334 -147 334 294 0zm654 -54l-124 127 0 176 -98 0 0 -682 98 0 0 381 370 -381 111 0 -291 307 309 375 -114 0 -261 -303zm1184 -379l0 682 -97 0 0 -304 -392 0 0 304 -97 0 0 -682 97 0 0 293 392 0 0 -293 97 0zm522 690c-51,0 -100,-8 -148,-24 -48,-16 -85,-37 -113,-62l36 -76c26,23 60,42 100,57 41,14 83,22 125,22 57,0 99,-10 127,-29 28,-19 42,-45 42,-76 0,-24 -8,-43 -23,-57 -15,-15 -34,-26 -57,-34 -22,-8 -54,-16 -94,-26 -52,-13 -93,-25 -125,-37 -31,-13 -58,-32 -80,-57 -23,-26 -34,-60 -34,-104 0,-36 10,-69 29,-98 19,-29 48,-53 87,-70 39,-18 87,-27 145,-27 40,0 80,6 119,16 39,10 72,25 100,45l-32 78c-29,-19 -59,-32 -92,-42 -32,-9 -64,-14 -95,-14 -55,0 -97,10 -124,30 -28,20 -42,46 -42,78 0,24 8,43 24,57 15,15 35,26 58,34 23,8 54,17 94,26 51,12 92,25 123,37 31,12 58,31 81,57 22,25 33,59 33,102 0,35 -10,68 -29,98 -19,29 -49,53 -89,70 -39,17 -88,26 -146,26zm651 -605l-233 0 0 -85 563 0 0 85 -233 0 0 597 -97 0 0 -597zm956 426l-362 0 -75 171 -100 0 308 -682 97 0 309 682 -102 0 -75 -171zm-34 -78l-147 -334 -147 334 294 0zm1018 -433l0 682 -80 0 -409 -508 0 508 -97 0 0 -682 80 0 409 508 0 -508 97 0z"/>
   <g>
    <path class="fil1" d="M6022 3265l-205 0 -42 97 -57 0 174 -386 55 0 175 386 -58 0 -42 -97zm-20 -44l-83 -188 -83 188 166 0zm264 144c-24,0 -47,-3 -68,-10 -23,-6 -40,-14 -52,-24l22 -42c13,9 28,17 47,22 18,6 36,8 55,8 46,0 70,-13 70,-39 0,-9 -4,-16 -10,-21 -6,-5 -14,-9 -23,-11 -10,-3 -23,-6 -40,-8 -24,-4 -43,-8 -58,-13 -15,-5 -27,-13 -38,-24 -11,-12 -16,-28 -16,-48 0,-27 11,-48 33,-64 22,-16 52,-24 89,-24 19,0 39,3 58,7 20,5 35,12 48,20l-23 42c-23,-16 -52,-24 -84,-24 -22,0 -39,4 -51,11 -12,8 -18,17 -18,30 0,9 4,17 10,22 7,6 15,10 25,12 10,3 23,6 41,9 23,4 42,8 57,13 14,5 27,12 37,23 10,11 15,27 15,47 0,26 -11,47 -34,63 -22,15 -53,23 -92,23zm290 0c-24,0 -47,-3 -69,-10 -22,-6 -39,-14 -51,-24l22 -42c12,9 28,17 46,22 19,6 37,8 56,8 46,0 69,-13 69,-39 0,-9 -3,-16 -9,-21 -6,-5 -14,-9 -23,-11 -10,-3 -23,-6 -40,-8 -24,-4 -43,-8 -58,-13 -15,-5 -27,-13 -38,-24 -11,-12 -16,-28 -16,-48 0,-27 11,-48 33,-64 22,-16 52,-24 89,-24 19,0 38,3 58,7 19,5 35,12 48,20l-23 42c-24,-16 -52,-24 -84,-24 -22,0 -39,4 -51,11 -12,8 -18,17 -18,30 0,9 3,17 10,22 7,6 15,10 25,12 9,3 23,6 41,9 23,4 42,8 57,13 14,5 26,12 37,23 10,11 15,27 15,47 0,26 -11,47 -34,63 -22,15 -53,23 -92,23zm331 0c-29,0 -55,-6 -78,-19 -23,-13 -41,-31 -54,-53 -13,-23 -20,-49 -20,-77 0,-29 7,-54 20,-77 13,-22 31,-40 54,-53 23,-12 49,-19 78,-19 29,0 55,7 78,19 23,13 41,31 54,53 13,23 19,48 19,77 0,28 -6,54 -19,77 -13,22 -31,40 -54,53 -23,13 -49,19 -78,19zm0 -46c19,0 36,-5 51,-13 14,-9 26,-21 34,-36 9,-16 13,-34 13,-54 0,-20 -4,-38 -13,-54 -8,-15 -20,-27 -34,-36 -15,-8 -32,-12 -51,-12 -19,0 -35,4 -50,12 -15,9 -27,21 -35,36 -9,16 -13,34 -13,54 0,20 4,38 13,54 8,15 20,27 35,36 15,8 31,13 50,13zm366 46c-30,0 -56,-6 -80,-19 -23,-13 -41,-31 -54,-53 -14,-23 -20,-49 -20,-77 0,-29 6,-54 20,-77 13,-22 31,-40 54,-53 24,-12 50,-19 80,-19 26,0 50,6 71,16 20,11 36,26 48,46l-40 26c-10,-14 -21,-24 -35,-31 -13,-7 -28,-10 -45,-10 -19,0 -36,4 -51,12 -15,9 -27,21 -36,36 -9,16 -13,34 -13,54 0,20 4,38 13,54 9,16 21,28 36,36 15,9 32,13 51,13 17,0 32,-4 45,-11 14,-7 25,-17 35,-31l40 25c-12,20 -28,36 -48,47 -21,11 -45,16 -71,16zm201 -295l53 0 0 292 -53 0 0 -292zm27 -56c-11,0 -19,-3 -26,-10 -7,-7 -10,-15 -10,-24 0,-10 3,-18 10,-25 7,-6 15,-10 26,-10 10,0 18,3 25,10 7,6 10,14 10,24 0,10 -3,18 -10,25 -7,6 -15,10 -25,10zm247 53c40,0 71,10 93,30 21,20 32,49 32,89l0 176 -50 0 0 -39c-9,14 -22,24 -38,31 -16,7 -36,11 -58,11 -33,0 -59,-8 -78,-24 -20,-15 -30,-36 -30,-62 0,-26 10,-46 28,-62 19,-15 49,-23 89,-23l84 0 0 -11c0,-22 -7,-40 -20,-52 -13,-12 -32,-18 -58,-18 -17,0 -34,3 -51,8 -16,6 -30,14 -42,23l-22 -39c15,-12 33,-22 54,-28 21,-7 43,-10 67,-10zm-12 257c20,0 37,-4 52,-13 15,-9 25,-22 32,-38l0 -41 -81 0c-45,0 -68,15 -68,45 0,15 6,26 18,35 11,8 27,12 47,12zm413 21c-8,6 -17,11 -29,15 -11,3 -23,5 -35,5 -29,0 -52,-8 -68,-24 -16,-15 -24,-38 -24,-67l0 -160 -50 0 0 -44 50 0 0 -64 52 0 0 64 84 0 0 44 -84 0 0 157c0,16 4,28 12,37 8,8 19,12 34,12 16,0 30,-4 41,-13l17 38zm78 -275l53 0 0 292 -53 0 0 -292zm26 -56c-10,0 -19,-3 -25,-10 -7,-7 -11,-15 -11,-24 0,-10 4,-18 11,-25 6,-6 15,-10 25,-10 10,0 19,3 26,10 7,6 10,14 10,24 0,10 -3,18 -10,25 -7,6 -16,10 -26,10zm266 351c-29,0 -55,-6 -78,-19 -23,-13 -41,-31 -54,-53 -13,-23 -20,-49 -20,-77 0,-29 7,-54 20,-77 13,-22 31,-40 54,-53 23,-12 49,-19 78,-19 29,0 55,7 78,19 23,13 41,31 54,53 13,23 20,48 20,77 0,28 -7,54 -20,77 -13,22 -31,40 -54,53 -23,13 -49,19 -78,19zm0 -46c19,0 36,-5 51,-13 15,-9 26,-21 35,-36 8,-16 12,-34 12,-54 0,-20 -4,-38 -12,-54 -9,-15 -20,-27 -35,-36 -15,-8 -32,-12 -51,-12 -18,0 -35,4 -50,12 -15,9 -27,21 -35,36 -9,16 -13,34 -13,54 0,20 4,38 13,54 8,15 20,27 35,36 15,8 32,13 50,13zm395 -252c37,0 66,11 88,32 22,22 33,53 33,95l0 168 -53 0 0 -162c0,-28 -7,-50 -20,-64 -14,-14 -33,-21 -59,-21 -28,0 -51,8 -67,25 -17,16 -25,40 -25,71l0 151 -53 0 0 -292 51 0 0 44c10,-15 25,-27 43,-35 18,-8 39,-12 62,-12zm488 -73c-32,0 -48,17 -48,51l0 25 85 0 0 44 -84 0 0 248 -52 0 0 -248 -50 0 0 -44 50 0 0 -26c0,-29 8,-52 25,-69 17,-17 40,-25 71,-25 12,0 23,1 33,4 10,3 19,8 26,13l-16 40c-12,-9 -25,-13 -40,-13zm222 371c-29,0 -55,-6 -78,-19 -23,-13 -42,-31 -55,-53 -13,-23 -19,-49 -19,-77 0,-29 6,-54 19,-77 13,-22 32,-40 55,-53 23,-12 49,-19 78,-19 29,0 55,7 78,19 23,13 41,31 54,53 13,23 19,48 19,77 0,28 -6,54 -19,77 -13,22 -31,40 -54,53 -23,13 -49,19 -78,19zm0 -46c18,0 35,-5 50,-13 15,-9 27,-21 35,-36 9,-16 13,-34 13,-54 0,-20 -4,-38 -13,-54 -8,-15 -20,-27 -35,-36 -15,-8 -32,-12 -50,-12 -19,0 -36,4 -51,12 -14,9 -26,21 -35,36 -8,16 -13,34 -13,54 0,20 5,38 13,54 9,15 21,27 35,36 15,8 32,13 51,13zm289 -200c9,-17 23,-30 41,-39 18,-8 40,-13 65,-13l0 51c-3,0 -7,0 -12,0 -28,0 -51,8 -67,26 -17,17 -25,41 -25,72l0 146 -53 0 0 -292 51 0 0 49zm501 226c-8,6 -17,11 -28,15 -12,3 -24,5 -36,5 -29,0 -52,-8 -68,-24 -16,-15 -24,-38 -24,-67l0 -160 -50 0 0 -44 50 0 0 -64 53 0 0 64 83 0 0 44 -83 0 0 157c0,16 4,28 12,37 7,8 19,12 33,12 17,0 30,-4 42,-13l16 38zm234 -278c37,0 66,11 88,32 22,22 33,53 33,95l0 168 -53 0 0 -162c0,-28 -7,-50 -20,-64 -14,-14 -33,-21 -59,-21 -28,0 -51,8 -67,25 -17,16 -25,40 -25,71l0 151 -53 0 0 -409 53 0 0 158c11,-14 25,-24 43,-32 18,-8 38,-12 60,-12zm498 151c0,4 0,9 -1,15l-237 0c4,26 15,47 34,62 20,16 43,24 72,24 35,0 63,-12 84,-35l29 34c-13,15 -29,27 -49,35 -19,8 -41,12 -66,12 -30,0 -58,-6 -82,-19 -23,-13 -42,-30 -55,-53 -13,-23 -19,-49 -19,-77 0,-28 6,-54 19,-77 12,-22 30,-40 52,-53 22,-12 47,-19 75,-19 28,0 53,7 75,19 21,13 38,31 51,53 12,23 18,49 18,79zm-144 -106c-25,0 -47,8 -64,23 -17,15 -27,36 -30,60l188 0c-3,-24 -13,-44 -30,-60 -18,-15 -39,-23 -64,-23zm387 -136l163 0c40,0 76,9 108,25 32,16 56,38 73,68 18,29 27,62 27,100 0,38 -9,71 -27,101 -17,29 -41,51 -73,67 -32,17 -68,25 -108,25l-163 0 0 -386zm159 338c31,0 59,-6 83,-18 23,-12 41,-29 54,-51 13,-22 20,-47 20,-76 0,-29 -7,-54 -20,-76 -13,-21 -31,-38 -54,-51 -24,-12 -52,-18 -83,-18l-104 0 0 290 104 0zm566 -96c0,4 -1,9 -1,15l-237 0c3,26 15,47 34,62 19,16 43,24 72,24 35,0 63,-12 84,-35l29 34c-13,15 -30,27 -49,35 -20,8 -42,12 -66,12 -31,0 -58,-6 -82,-19 -24,-13 -42,-30 -55,-53 -13,-23 -20,-49 -20,-77 0,-28 7,-54 19,-77 13,-22 30,-40 52,-53 23,-12 48,-19 76,-19 27,0 52,7 74,19 22,13 39,31 51,53 13,23 19,49 19,79zm-144 -106c-26,0 -47,8 -64,23 -17,15 -27,36 -30,60l187 0c-3,-24 -13,-44 -30,-60 -17,-15 -38,-23 -63,-23zm484 -42l-128 292 -54 0 -128 -292 55 0 101 234 102 -234 52 0zm319 148c0,4 -1,9 -2,15l-236 0c3,26 14,47 34,62 19,16 43,24 71,24 35,0 63,-12 85,-35l29 34c-13,15 -30,27 -49,35 -20,8 -42,12 -66,12 -31,0 -58,-6 -82,-19 -24,-13 -42,-30 -55,-53 -14,-23 -20,-49 -20,-77 0,-28 6,-54 19,-77 13,-22 30,-40 52,-53 22,-12 47,-19 75,-19 28,0 53,7 75,19 22,13 39,31 51,53 12,23 19,49 19,79zm-145 -106c-25,0 -46,8 -63,23 -17,15 -27,36 -30,60l187 0c-3,-24 -13,-44 -30,-60 -17,-15 -38,-23 -64,-23zm232 -159l53 0 0 409 -53 0 0 -409zm292 412c-29,0 -55,-6 -78,-19 -23,-13 -41,-31 -54,-53 -13,-23 -19,-49 -19,-77 0,-29 6,-54 19,-77 13,-22 31,-40 54,-53 23,-12 49,-19 78,-19 29,0 55,7 78,19 23,13 41,31 54,53 13,23 20,48 20,77 0,28 -7,54 -20,77 -13,22 -31,40 -54,53 -23,13 -49,19 -78,19zm0 -46c19,0 36,-5 51,-13 15,-9 26,-21 35,-36 8,-16 12,-34 12,-54 0,-20 -4,-38 -12,-54 -9,-15 -20,-27 -35,-36 -15,-8 -32,-12 -51,-12 -18,0 -35,4 -50,12 -15,9 -27,21 -35,36 -9,16 -13,34 -13,54 0,20 4,38 13,54 8,15 20,27 35,36 15,8 32,13 50,13zm394 -252c28,0 53,7 76,19 22,12 40,30 52,52 13,23 19,49 19,78 0,29 -6,55 -19,78 -12,22 -30,40 -52,52 -23,13 -48,19 -76,19 -21,0 -40,-4 -58,-12 -17,-8 -32,-20 -44,-35l0 150 -53 0 0 -398 51 0 0 46c11,-16 26,-28 44,-36 18,-9 38,-13 60,-13zm-5 252c19,0 36,-5 51,-13 14,-9 26,-21 35,-36 8,-16 13,-34 13,-54 0,-20 -5,-38 -13,-54 -9,-15 -21,-27 -35,-36 -15,-8 -32,-12 -51,-12 -18,0 -35,4 -50,12 -14,9 -26,21 -35,37 -8,15 -13,33 -13,53 0,20 5,38 13,54 8,15 20,27 35,36 15,8 32,13 50,13zm604 -252c37,0 66,11 88,32 21,21 32,53 32,95l0 168 -53 0 0 -162c0,-28 -7,-50 -20,-64 -13,-14 -31,-21 -56,-21 -26,0 -48,8 -63,25 -16,16 -24,40 -24,71l0 151 -53 0 0 -162c0,-28 -6,-50 -19,-64 -13,-14 -32,-21 -56,-21 -27,0 -48,8 -64,25 -16,16 -24,40 -24,71l0 151 -53 0 0 -292 51 0 0 44c11,-16 25,-27 42,-35 17,-8 37,-12 59,-12 22,0 43,5 60,14 18,9 31,23 41,40 11,-17 26,-30 46,-39 20,-10 42,-15 66,-15zm496 151c0,4 0,9 -1,15l-236 0c3,26 14,47 34,62 19,16 43,24 71,24 35,0 63,-12 85,-35l29 34c-13,15 -30,27 -50,35 -19,8 -41,12 -65,12 -31,0 -58,-6 -82,-19 -24,-13 -43,-30 -56,-53 -13,-23 -19,-49 -19,-77 0,-28 6,-54 19,-77 13,-22 30,-40 52,-53 22,-12 47,-19 75,-19 28,0 53,7 75,19 22,13 39,31 51,53 12,23 18,49 18,79zm-144 -106c-25,0 -46,8 -63,23 -17,15 -27,36 -30,60l187 0c-3,-24 -13,-44 -30,-60 -17,-15 -38,-23 -64,-23zm387 -45c38,0 67,11 89,32 22,22 33,53 33,95l0 168 -53 0 0 -162c0,-28 -7,-50 -21,-64 -13,-14 -33,-21 -58,-21 -29,0 -51,8 -68,25 -16,16 -24,40 -24,71l0 151 -53 0 0 -292 50 0 0 44c11,-15 25,-27 44,-35 18,-8 38,-12 61,-12zm398 278c-8,6 -18,11 -29,15 -11,3 -23,5 -35,5 -30,0 -52,-8 -68,-24 -17,-15 -25,-38 -25,-67l0 -160 -49 0 0 -44 49 0 0 -64 53 0 0 64 84 0 0 44 -84 0 0 157c0,16 4,28 12,37 8,8 19,12 34,12 16,0 30,-4 41,-13l17 38zm-9369 636c-29,0 -55,-6 -78,-19 -23,-13 -41,-30 -54,-53 -13,-22 -19,-48 -19,-77 0,-28 6,-54 19,-76 13,-23 31,-41 54,-53 23,-13 49,-19 78,-19 29,0 55,6 78,19 23,12 41,30 54,53 13,22 20,48 20,76 0,29 -7,55 -20,77 -13,23 -31,40 -54,53 -23,13 -49,19 -78,19zm0 -46c19,0 36,-4 51,-13 15,-8 26,-20 35,-36 8,-16 12,-33 12,-54 0,-20 -4,-38 -12,-53 -9,-16 -20,-28 -35,-36 -15,-9 -32,-13 -51,-13 -18,0 -35,4 -50,13 -15,8 -27,20 -35,36 -9,15 -13,33 -13,53 0,21 4,38 13,54 8,16 20,28 35,36 15,9 32,13 50,13zm346 -325c-32,0 -48,17 -48,51l0 26 85 0 0 43 -83 0 0 248 -53 0 0 -248 -50 0 0 -43 50 0 0 -26c0,-29 8,-52 25,-69 17,-17 41,-25 71,-25 12,0 23,1 33,4 10,3 19,7 26,13l-15 40c-13,-9 -26,-14 -41,-14zm429 373c-38,0 -73,-9 -104,-26 -31,-17 -55,-41 -73,-70 -17,-30 -26,-64 -26,-101 0,-38 9,-72 26,-101 18,-30 42,-54 73,-71 32,-17 66,-25 105,-25 30,0 58,5 82,15 25,10 47,25 64,45l-35 34c-29,-30 -66,-45 -109,-45 -28,0 -54,6 -77,19 -24,13 -42,30 -55,53 -13,22 -19,48 -19,76 0,27 6,53 19,75 13,23 31,41 55,53 23,13 49,20 77,20 43,0 79,-16 109,-47l35 35c-17,20 -39,35 -64,45 -25,10 -53,16 -83,16zm345 -2c-29,0 -55,-6 -78,-19 -23,-13 -41,-30 -54,-53 -13,-22 -20,-48 -20,-77 0,-28 7,-54 20,-76 13,-23 31,-41 54,-53 23,-13 49,-19 78,-19 29,0 55,6 78,19 23,12 41,30 54,53 13,22 20,48 20,76 0,29 -7,55 -20,77 -13,23 -31,40 -54,53 -23,13 -49,19 -78,19zm0 -46c19,0 36,-4 51,-13 14,-8 26,-20 35,-36 8,-16 12,-33 12,-54 0,-20 -4,-38 -12,-53 -9,-16 -21,-28 -35,-36 -15,-9 -32,-13 -51,-13 -18,0 -35,4 -50,13 -15,8 -27,20 -35,36 -9,15 -13,33 -13,53 0,21 4,38 13,54 8,16 20,28 35,36 15,9 32,13 50,13zm289 -200c10,-16 23,-29 41,-38 18,-9 40,-13 66,-13l0 51c-3,0 -7,-1 -12,-1 -29,0 -52,9 -68,26 -16,17 -24,41 -24,73l0 145 -53 0 0 -291 50 0 0 48zm340 -51c29,0 54,6 76,18 23,13 40,30 53,53 13,22 19,48 19,77 0,30 -6,56 -19,78 -13,23 -30,40 -53,53 -22,12 -47,18 -76,18 -21,0 -40,-4 -57,-12 -18,-8 -32,-19 -44,-35l0 151 -53 0 0 -398 50 0 0 46c12,-16 27,-29 45,-37 18,-8 38,-12 59,-12zm-4 251c19,0 35,-4 50,-13 15,-8 27,-20 36,-36 8,-16 12,-33 12,-54 0,-20 -4,-38 -12,-53 -9,-16 -21,-28 -36,-36 -15,-9 -31,-13 -50,-13 -18,0 -35,4 -50,13 -15,9 -26,21 -35,36 -9,15 -13,33 -13,53 0,21 4,38 13,54 8,16 20,28 35,36 15,9 32,13 50,13z"/>
    <path class="fil1" d="M8002 3981c-29,0 -55,-6 -78,-19 -23,-13 -41,-30 -54,-53 -13,-22 -20,-48 -20,-77 0,-28 7,-54 20,-76 13,-23 31,-41 54,-53 23,-13 49,-19 78,-19 29,0 55,6 78,19 23,12 41,30 54,53 13,22 19,48 19,76 0,29 -6,55 -19,77 -13,23 -31,40 -54,53 -23,13 -49,19 -78,19zm0 -46c19,0 36,-4 50,-13 15,-8 27,-20 35,-36 9,-16 13,-33 13,-54 0,-20 -4,-38 -13,-53 -8,-16 -20,-28 -35,-36 -14,-9 -31,-13 -50,-13 -19,0 -35,4 -50,13 -15,8 -27,20 -36,36 -8,15 -12,33 -12,53 0,21 4,38 12,54 9,16 21,28 36,36 15,9 31,13 50,13zm289 -200c9,-16 23,-29 41,-38 18,-9 40,-13 66,-13l0 51c-3,0 -7,-1 -13,-1 -28,0 -51,9 -67,26 -16,17 -25,41 -25,73l0 145 -52 0 0 -291 50 0 0 48zm291 -51c41,0 71,10 93,29 21,20 32,50 32,89l0 176 -50 0 0 -38c-9,13 -21,24 -38,31 -16,7 -35,10 -58,10 -32,0 -59,-7 -78,-23 -20,-16 -30,-37 -30,-62 0,-26 10,-47 28,-62 19,-16 49,-24 90,-24l83 0 0 -10c0,-23 -6,-40 -20,-52 -13,-13 -32,-19 -58,-19 -17,0 -34,3 -51,9 -16,6 -30,13 -41,23l-22 -40c15,-12 33,-21 54,-28 21,-6 43,-9 66,-9zm-12 257c20,0 38,-5 52,-14 15,-9 26,-21 32,-38l0 -41 -81 0c-45,0 -67,15 -67,45 0,15 5,27 17,35 11,9 27,13 47,13zm413 20c-8,7 -17,12 -28,15 -12,4 -24,5 -36,5 -29,0 -52,-7 -68,-23 -16,-16 -24,-39 -24,-68l0 -160 -50 0 0 -43 50 0 0 -64 53 0 0 64 83 0 0 43 -83 0 0 158c0,16 4,28 12,36 7,9 19,13 33,13 16,0 30,-5 42,-14l16 38zm332 -127c0,4 -1,9 -1,16l-237 0c3,26 15,46 34,62 19,15 43,23 72,23 35,0 63,-11 84,-35l29 34c-13,16 -30,27 -49,35 -20,8 -42,12 -66,12 -31,0 -58,-6 -82,-19 -24,-12 -42,-30 -55,-53 -13,-22 -20,-48 -20,-77 0,-28 7,-53 19,-76 13,-23 30,-41 52,-53 23,-13 48,-19 76,-19 27,0 52,6 74,19 22,12 39,30 51,53 13,23 19,49 19,78zm-144 -106c-26,0 -47,8 -64,23 -17,16 -27,36 -30,61l187 0c-3,-25 -13,-45 -30,-60 -17,-16 -38,-24 -63,-24zm499 255c-29,0 -57,-5 -84,-14 -27,-9 -48,-21 -63,-35l20 -43c15,13 33,24 56,32 23,9 47,13 71,13 32,0 56,-6 72,-16 15,-11 23,-26 23,-44 0,-13 -4,-24 -13,-32 -8,-8 -19,-14 -32,-19 -12,-4 -30,-9 -53,-15 -29,-7 -53,-14 -70,-21 -18,-7 -33,-17 -46,-32 -13,-14 -19,-34 -19,-58 0,-21 5,-39 16,-56 11,-16 27,-30 49,-40 22,-10 50,-14 82,-14 23,0 46,2 68,8 22,6 40,15 56,26l-18 44c-16,-11 -33,-18 -52,-24 -18,-5 -36,-8 -54,-8 -31,0 -54,6 -70,17 -15,12 -23,26 -23,44 0,14 4,24 13,33 9,8 20,14 33,19 13,4 31,9 53,14 29,7 52,14 70,21 17,7 33,18 45,32 13,15 19,34 19,58 0,20 -5,39 -16,55 -11,17 -28,30 -50,40 -23,10 -50,15 -83,15zm391 -299c28,0 53,6 76,18 22,13 39,30 52,53 13,22 19,48 19,77 0,30 -6,56 -19,78 -13,23 -30,40 -52,53 -23,12 -48,18 -76,18 -21,0 -41,-4 -58,-12 -17,-8 -32,-19 -44,-35l0 151 -53 0 0 -398 51 0 0 46c11,-16 26,-29 44,-37 18,-8 38,-12 60,-12zm-5 251c19,0 36,-4 51,-13 14,-8 26,-20 35,-36 8,-16 13,-33 13,-54 0,-20 -5,-38 -13,-53 -9,-16 -21,-28 -35,-36 -15,-9 -32,-13 -51,-13 -18,0 -35,4 -50,13 -14,9 -26,21 -35,36 -8,15 -13,33 -13,53 0,21 4,38 13,54 8,16 20,28 35,36 15,9 32,13 50,13zm364 46c-29,0 -55,-6 -78,-19 -23,-13 -41,-30 -54,-53 -13,-22 -20,-48 -20,-77 0,-28 7,-54 20,-76 13,-23 31,-41 54,-53 23,-13 49,-19 78,-19 29,0 55,6 78,19 23,12 41,30 54,53 13,22 20,48 20,76 0,29 -7,55 -20,77 -13,23 -31,40 -54,53 -23,13 -49,19 -78,19zm0 -46c19,0 36,-4 51,-13 14,-8 26,-20 35,-36 8,-16 12,-33 12,-54 0,-20 -4,-38 -12,-53 -9,-16 -21,-28 -35,-36 -15,-9 -32,-13 -51,-13 -18,0 -35,4 -50,13 -15,8 -27,20 -35,36 -9,15 -13,33 -13,53 0,21 4,38 13,54 8,16 20,28 35,36 15,9 32,13 50,13zm289 -200c10,-16 23,-29 41,-38 18,-9 40,-13 66,-13l0 51c-3,0 -7,-1 -12,-1 -29,0 -51,9 -68,26 -16,17 -24,41 -24,73l0 145 -53 0 0 -291 50 0 0 48zm362 226c-8,7 -17,12 -29,15 -11,4 -23,5 -35,5 -29,0 -52,-7 -68,-23 -16,-16 -24,-39 -24,-68l0 -160 -50 0 0 -43 50 0 0 -64 52 0 0 64 84 0 0 43 -84 0 0 158c0,16 4,28 12,36 8,9 19,13 34,13 16,0 30,-5 41,-14l17 38zm161 20c-23,0 -46,-3 -68,-9 -22,-7 -40,-15 -52,-25l22 -41c13,9 28,16 47,22 18,5 37,8 55,8 46,0 70,-13 70,-40 0,-9 -4,-16 -10,-21 -6,-5 -14,-9 -23,-11 -10,-2 -23,-5 -40,-8 -24,-4 -43,-8 -58,-13 -14,-4 -27,-12 -38,-24 -10,-11 -16,-27 -16,-48 0,-26 11,-47 33,-63 22,-16 52,-24 89,-24 19,0 39,2 58,7 20,5 36,11 48,19l-23 42c-23,-15 -51,-23 -84,-23 -22,0 -39,4 -51,11 -12,7 -17,17 -17,29 0,10 3,17 9,23 7,5 15,9 25,12 10,2 23,5 41,9 23,4 42,8 57,12 14,5 27,13 37,24 10,11 15,26 15,46 0,27 -11,48 -33,63 -23,16 -54,23 -93,23zm305 -172l275 0 0 37 -275 0 0 -37zm620 -2l-70 72 0 99 -55 0 0 -385 55 0 0 215 209 -215 63 0 -165 173 175 212 -64 0 -148 -171zm376 -123c40,0 71,10 93,29 21,20 32,50 32,89l0 176 -50 0 0 -38c-9,13 -22,24 -38,31 -16,7 -36,10 -58,10 -33,0 -59,-7 -79,-23 -19,-16 -29,-37 -29,-62 0,-26 9,-47 28,-62 19,-16 48,-24 89,-24l84 0 0 -10c0,-23 -7,-40 -20,-52 -13,-13 -33,-19 -58,-19 -18,0 -34,3 -51,9 -16,6 -30,13 -42,23l-22 -40c15,-12 33,-21 54,-28 21,-6 43,-9 67,-9zm-12 257c20,0 37,-5 52,-14 15,-9 25,-21 32,-38l0 -41 -82 0c-44,0 -67,15 -67,45 0,15 6,27 17,35 12,9 27,13 48,13zm465 -6l0 43 -244 0 0 -34 172 -214 -169 0 0 -43 237 0 0 34 -173 214 177 0zm191 -251c40,0 71,10 92,29 22,20 33,50 33,89l0 176 -50 0 0 -38c-9,13 -22,24 -38,31 -16,7 -36,10 -58,10 -33,0 -59,-7 -79,-23 -19,-16 -29,-37 -29,-62 0,-26 9,-47 28,-62 19,-16 48,-24 89,-24l84 0 0 -10c0,-23 -7,-40 -20,-52 -13,-13 -33,-19 -58,-19 -18,0 -34,3 -51,9 -16,6 -30,13 -42,23l-22 -40c15,-12 33,-21 54,-28 21,-6 43,-9 67,-9zm-12 257c20,0 37,-5 52,-14 15,-9 25,-21 32,-38l0 -41 -82 0c-44,0 -67,15 -67,45 0,15 6,27 17,35 12,9 27,13 48,13zm362 -99l-60 56 0 80 -53 0 0 -408 53 0 0 262 159 -145 63 0 -122 120 135 171 -65 0 -110 -136zm396 -158c37,0 66,11 88,32 22,21 33,53 33,94l0 168 -53 0 0 -162c0,-28 -7,-49 -21,-63 -13,-15 -33,-22 -58,-22 -29,0 -51,8 -68,25 -16,17 -24,41 -24,72l0 150 -53 0 0 -408 53 0 0 158c11,-14 25,-25 43,-33 18,-7 38,-11 60,-11zm316 297c-24,0 -47,-3 -68,-9 -23,-7 -40,-15 -52,-25l22 -41c13,9 28,16 47,22 18,5 36,8 55,8 46,0 70,-13 70,-40 0,-9 -4,-16 -10,-21 -6,-5 -14,-9 -23,-11 -10,-2 -23,-5 -40,-8 -24,-4 -43,-8 -58,-13 -15,-4 -27,-12 -38,-24 -11,-11 -16,-27 -16,-48 0,-26 11,-47 33,-63 22,-16 52,-24 89,-24 19,0 39,2 58,7 20,5 35,11 48,19l-23 42c-23,-15 -52,-23 -84,-23 -22,0 -39,4 -51,11 -12,7 -18,17 -18,29 0,10 4,17 10,23 7,5 15,9 25,12 10,2 23,5 41,9 23,4 42,8 57,12 14,5 27,13 37,24 10,11 15,26 15,46 0,27 -11,48 -34,63 -22,16 -53,23 -92,23zm370 -20c-7,7 -17,12 -28,15 -12,4 -23,5 -35,5 -30,0 -52,-7 -69,-23 -16,-16 -24,-39 -24,-68l0 -160 -49 0 0 -43 49 0 0 -64 53 0 0 64 84 0 0 43 -84 0 0 158c0,16 4,28 12,36 8,9 19,13 34,13 16,0 30,-5 41,-14l16 38zm185 -277c40,0 71,10 92,29 22,20 32,50 32,89l0 176 -50 0 0 -38c-8,13 -21,24 -37,31 -17,7 -36,10 -58,10 -33,0 -59,-7 -79,-23 -19,-16 -29,-37 -29,-62 0,-26 9,-47 28,-62 19,-16 48,-24 89,-24l84 0 0 -10c0,-23 -7,-40 -20,-52 -13,-13 -33,-19 -58,-19 -18,0 -35,3 -51,9 -17,6 -31,13 -42,23l-22 -40c15,-12 33,-21 54,-28 21,-6 43,-9 67,-9zm-13 257c21,0 38,-5 53,-14 14,-9 25,-21 32,-38l0 -41 -82 0c-45,0 -67,15 -67,45 0,15 6,27 17,35 12,9 27,13 47,13zm405 -257c37,0 67,11 89,32 21,21 32,53 32,94l0 168 -53 0 0 -162c0,-28 -6,-49 -20,-63 -13,-15 -33,-22 -58,-22 -29,0 -51,8 -68,25 -16,17 -25,41 -25,72l0 150 -52 0 0 -291 50 0 0 44c11,-15 25,-27 43,-35 19,-8 39,-12 62,-12z"/>
   </g>
   <g>
    <polygon class="fil2" points="4118,3298 5045,3298 4583,2108 1116,3675 3887,2703 "/>
    <polygon class="fil3" points="2233,2492 1100,3029 3186,155 3740,0 2764,1615 2768,1608 "/>
    <path class="fil4" d="M4754 1843c-1545,300 -3137,1029 -4754,2005 1585,-560 3170,-1201 4754,-2005z"/>
    <polygon class="fil5" points="4118,3298 3887,2703 4086,2626 4347,3298 "/>
    <path class="fil6" d="M4754 1843c-201,39 -403,85 -606,139l-4148 1866c1585,-560 3170,-1201 4754,-2005z"/>
    <polygon class="fil6" points="4583,2108 1116,3675 4615,2188 "/>
    <polygon class="fil7" points="2409,2409 2233,2492 2768,1608 3789,31 4415,1673 3715,1919 3369,1029 "/>
    <polygon class="fil6" points="3369,1029 2410,2409 1100,3029 1174,2925 2246,2417 3345,717 3778,1833 4393,1618 4415,1673 3715,1919 "/>
   </g>
  </g>
 </g>
</svg>
